<svg width="100" height="143" viewBox="0 0 100 143" fill="none" xmlns="http://www.w3.org/2000/svg">
<g clip-path="url(#clip0_40_30)">
<path d="M71.1023 3.57383C72.2672 5.02024 72.8609 6.97184 74.0488 10.875L100 96.1437C90.2523 91.084 79.7901 87.541 68.9742 85.6371L52.0773 28.525C51.9425 28.0695 51.6639 27.6698 51.2832 27.3859C50.9025 27.1019 50.44 26.9488 49.9651 26.9496C49.4902 26.9503 49.0282 27.1048 48.6484 27.39C48.2685 27.6752 47.9912 28.0757 47.8578 28.5316L31.1656 85.6086C20.3009 87.5035 9.79043 91.0519 0 96.1304L26.0781 10.8551C27.2699 6.95894 27.866 5.01047 29.0309 3.56679C30.0592 2.29237 31.3968 1.30264 32.916 0.691948C34.6367 0 36.6738 0 40.7477 0H59.3738C63.4531 0 65.4926 0 67.2152 0.69312C68.7357 1.30529 70.0738 2.2971 71.102 3.57383H71.1023Z" fill="white"/>
<path d="M74.2078 100.202C69.9296 103.86 61.3906 106.356 51.5546 106.356C39.4828 106.356 29.3644 102.597 26.6796 97.5413C25.7195 100.438 25.5042 103.755 25.5042 105.873C25.5042 105.873 24.8718 116.275 32.105 123.509C32.105 119.753 35.1499 116.707 38.9058 116.707C45.3433 116.707 45.3355 122.325 45.33 126.882L45.3296 127.289C45.3296 134.207 49.5562 140.137 55.5679 142.636C54.6426 140.731 54.1633 138.641 54.1664 136.523C54.1664 129.925 58.0386 127.469 62.5394 124.614C66.1203 122.342 70.0992 119.818 72.841 114.756C74.3177 112.028 75.0887 108.974 75.0839 105.873C75.0839 103.896 74.7769 101.99 74.2078 100.202Z" fill="#FF5D01"/>
</g>
<defs>
<clipPath id="clip0_40_30">
<rect width="100" height="143" fill="white"/>
</clipPath>
</defs>
</svg>
