<svg width="100" height="100" viewBox="0 0 100 100" fill="none" xmlns="http://www.w3.org/2000/svg">
<g clip-path="url(#clip0_25_178)">
<path d="M0 0H84C88.2435 0 92.3131 1.68571 95.3137 4.68629C98.3143 7.68687 100 11.7565 100 16V84C100 88.2435 98.3143 92.3131 95.3137 95.3137C92.3131 98.3143 88.2435 100 84 100H16C11.7565 100 7.68687 98.3143 4.68629 95.3137C1.68571 92.3131 0 88.2435 0 84L0 0Z" fill="#663399"/>
<path d="M81.6541 91.9901C78.4151 91.9901 75.9381 91.0481 74.2041 89.1551C72.4891 87.2521 71.5961 84.5371 71.5161 80.9911H78.4961C78.5361 84.1271 79.6381 85.6991 81.8041 85.6991C82.9081 85.6991 83.6901 85.3491 84.1411 84.6571C84.5821 83.9671 84.8131 82.8641 84.8131 81.3521C84.8131 80.1501 84.5121 79.1481 83.9301 78.3571C83.1404 77.4163 82.1266 76.6893 80.9821 76.2431L78.3951 75.0001C76.0891 73.8981 74.4141 72.5961 73.3811 71.0731C72.3781 69.5601 71.8771 67.4371 71.8771 64.7231C71.8771 61.6871 72.7601 59.2231 74.5141 57.3291C76.3191 55.4361 78.7761 54.4951 81.9141 54.4951C84.9441 54.4951 87.2901 55.4261 88.9441 57.2791C90.6291 59.1431 91.5111 61.8071 91.5821 65.2931H84.8631C84.9031 64.1531 84.6731 63.0211 84.1911 61.9871C83.8111 61.2271 83.0681 60.8461 81.9651 60.8461C80.0001 60.8461 79.0171 62.0171 79.0171 64.3511C79.0171 65.5341 79.2571 66.4551 79.7391 67.1561C80.4334 67.9317 81.3033 68.5297 82.2761 68.9001L84.7531 69.9921C87.3101 71.1641 89.1551 72.5971 90.2881 74.3301C91.4311 76.0531 91.9931 78.3571 91.9931 81.2421C91.9931 84.6981 91.0901 87.3521 89.2551 89.2051C87.4301 91.0581 84.8931 91.9901 81.6551 91.9901H81.6541ZM59.1121 91.9901C55.8721 91.9901 53.3961 91.0481 51.6611 89.1551C49.9461 87.2521 49.0541 84.5371 48.9741 80.9911H55.9531C55.9931 84.1271 57.0961 85.6991 59.2631 85.6991C60.3651 85.6991 61.1471 85.3491 61.5881 84.6571C62.0401 83.9671 62.2601 82.8641 62.2601 81.3521C62.2601 80.1501 61.9701 79.1481 61.3881 78.3571C60.5984 77.4163 59.5846 76.6893 58.4401 76.2431L55.8531 75.0001C53.5461 73.8981 51.8721 72.5961 50.8391 71.0731C49.8361 69.5601 49.3351 67.4371 49.3351 64.7231C49.3351 61.6871 50.2171 59.2231 51.9721 57.3291C53.7771 55.4361 56.2341 54.4951 59.3721 54.4951C62.4011 54.4951 64.7471 55.4261 66.3921 57.2791C68.0971 59.1431 68.9691 61.8071 69.0391 65.2931H62.3211C62.3611 64.1531 62.1311 63.0211 61.6491 61.9871C61.2681 61.2271 60.5261 60.8461 59.4231 60.8461C57.4571 60.8461 56.4741 62.0171 56.4741 64.3511C56.4741 65.5341 56.7151 66.4551 57.1961 67.1561C57.8904 67.9317 58.7603 68.5297 59.7331 68.9001L62.2101 69.9921C64.7671 71.1641 66.6121 72.5971 67.7461 74.3301C68.8791 76.0531 69.4501 78.3571 69.4501 81.2421C69.4501 84.6981 68.5381 87.3521 66.7131 89.2051C64.8881 91.0581 62.3511 91.9901 59.1121 91.9901ZM35.6371 91.9901C32.4671 91.9901 29.9511 91.1281 28.0861 89.4051C26.2211 87.6931 25.2981 85.1181 25.2981 81.7121V64.8831C25.2981 61.4981 26.2811 58.9331 28.2461 57.1701C30.2421 55.4271 32.8591 54.5461 36.0981 54.5461C39.2371 54.5461 41.7131 55.4471 43.5481 57.2301C45.4041 59.0231 46.3361 61.6881 46.3361 65.2441V66.5761H38.9461V65.2841C38.9461 63.9121 38.6451 62.9001 38.0631 62.2391C37.8089 61.9086 37.4802 61.6428 37.1038 61.4635C36.7274 61.2842 36.3139 61.1963 35.8971 61.2071C34.6941 61.2071 33.8421 61.6171 33.3601 62.4491C32.8471 63.6001 32.6167 64.857 32.6881 66.1151V80.7411C32.6881 83.7961 33.7621 85.3491 35.8981 85.3791C36.9001 85.3791 37.6521 85.0181 38.1741 84.2971C38.741 83.3864 39.0108 82.3219 38.9461 81.2511V80.1601H46.3361V81.3021C46.3361 83.6761 45.8751 85.6591 44.9421 87.2421C44.0553 88.787 42.7243 90.0295 41.1221 90.8081C39.4111 91.6248 37.5326 92.0296 35.6371 91.9901Z" fill="white"/>
</g>
<defs>
<clipPath id="clip0_25_178">
<rect width="100" height="100" fill="white"/>
</clipPath>
</defs>
</svg>
