<svg width="100" height="148" viewBox="0 0 100 148" fill="none" xmlns="http://www.w3.org/2000/svg">
<g clip-path="url(#clip0_25_143)">
<mask id="mask0_25_143" style="mask-type:luminance" maskUnits="userSpaceOnUse" x="0" y="0" width="99" height="148">
<path d="M98.7166 0H0.0500488V148H98.7166V0Z" fill="white"/>
</mask>
<g mask="url(#mask0_25_143)">
<path d="M24.7167 148C38.3326 148 49.3834 136.95 49.3834 123.334V98.667H24.7167C11.1007 98.667 0.0500488 109.718 0.0500488 123.334C0.0500488 136.95 11.1007 148 24.7167 148Z" fill="#0ACF83"/>
<path d="M0.0500488 73.9996C0.0500488 60.3836 11.1007 49.333 24.7167 49.333H49.3834V98.6664H24.7167C11.1007 98.6664 0.0500488 87.6156 0.0500488 73.9996Z" fill="#A259FF"/>
<path d="M0.0500488 24.6666C0.0500488 11.0507 11.1007 0 24.7167 0H49.3834V49.3334H24.7167C11.1007 49.3334 0.0500488 38.2826 0.0500488 24.6666Z" fill="#F24E1E"/>
<path d="M49.3835 0H74.0503C87.6663 0 98.7169 11.0507 98.7169 24.6666C98.7169 38.2826 87.6663 49.3334 74.0503 49.3334H49.3835V0Z" fill="#FF7262"/>
<path d="M98.7169 73.9996C98.7169 87.6156 87.6663 98.6664 74.0503 98.6664C60.4343 98.6664 49.3835 87.6156 49.3835 73.9996C49.3835 60.3836 60.4343 49.333 74.0503 49.333C87.6663 49.333 98.7169 60.3836 98.7169 73.9996Z" fill="#1ABCFE"/>
</g>
</g>
<defs>
<clipPath id="clip0_25_143">
<rect width="99.9" height="148" fill="white" transform="translate(0.0500488)"/>
</clipPath>
</defs>
</svg>
