<svg width="100" height="114" viewBox="0 0 100 114" fill="none" xmlns="http://www.w3.org/2000/svg">
<g clip-path="url(#clip0_25_183)">
<path d="M9.29225 100.846L0.270508 0H99.5097L90.4879 100.846L49.7801 112.246" fill="#E34F26"/>
<path d="M50 103.477L82.7863 94.4885L90.4878 8.11157H50" fill="#EF652A"/>
<path d="M50.0002 45.6H33.497L32.3968 32.8846H50.0002V20.6077H18.7542L22.0548 58.0961H50.0002V45.6ZM50.0002 77.8269L35.9175 74.1L35.0373 64.2346H22.7149L24.2552 83.7461L50.0002 90.7615V77.8269Z" fill="#ECEDEE"/>
<path d="M50 58.0961H65.1829L63.6426 74.1L50 77.8269V90.7615L75.3049 83.7461L78.8256 45.6H50V58.0961ZM50 20.6077V32.8846H79.9258L81.026 20.6077H50Z" fill="white"/>
</g>
<defs>
<clipPath id="clip0_25_183">
<rect width="99.4592" height="114" fill="white" transform="translate(0.270508)"/>
</clipPath>
</defs>
</svg>
