<svg width="100" height="88" viewBox="0 0 100 88" fill="none" xmlns="http://www.w3.org/2000/svg">
<g clip-path="url(#clip0_42_7)">
<path d="M26.9378 73.2374H25.9967L21.2988 68.5395V67.5983L28.4806 60.4166H33.4561L34.1196 61.0801V66.0556L26.9378 73.2374ZM21.2988 20.1029V19.1617L25.9967 14.4639H26.9378L34.1196 21.6456V26.6211L33.4561 27.2846H28.4806L21.2988 20.1029Z" fill="#05BDBA"/>
<path d="M62.6537 58.0947H55.8193L55.2485 57.5239V41.5246C55.2485 38.6783 54.1298 36.472 50.697 36.3949C48.9304 36.3486 46.9095 36.3949 44.7496 36.4798L44.4253 36.8116V57.5161L43.8545 58.0869H37.02L36.4492 57.5161V30.1855L37.02 29.6143H52.4017C58.3803 29.6143 63.2246 34.4585 63.2246 40.4371V57.5239L62.6537 58.0947Z" fill="#014847"/>
<path d="M27.9096 47.8506H0.570832L0 47.2797V40.4294L0.570832 39.8585H27.9096L28.4805 40.4294V47.2797L27.9096 47.8506ZM99.1106 47.8506H71.7718L71.201 47.2797V40.4294L71.7718 39.8585H99.1106L99.6814 40.4294V47.2797L99.1106 47.8506ZM45.8986 21.0748V0.570832L46.4695 0H53.3198L53.8907 0.570832V21.0748L53.3198 21.6457H46.4695L45.8986 21.0748ZM45.8986 87.1383V66.6343L46.4695 66.0635H53.3198L53.8907 66.6343V87.1383L53.3198 87.7087H46.4695L45.8986 87.1383Z" fill="#05BDBA"/>
</g>
<defs>
<clipPath id="clip0_42_7">
<rect width="99.6814" height="88" fill="white"/>
</clipPath>
</defs>
</svg>
