<svg width="102" height="66" viewBox="0 0 102 66" fill="none" xmlns="http://www.w3.org/2000/svg">
<g clip-path="url(#clip0_25_163)">
<path d="M57.1357 65.6185H94.5224C95.71 65.6185 96.8764 65.3157 97.9049 64.7397C98.9267 64.1701 99.7805 63.3416 100.381 62.3374C100.972 61.3452 101.285 60.2115 101.286 59.0563C101.286 57.9044 100.972 56.7734 100.377 55.7759L75.27 13.5929C74.6699 12.589 73.8161 11.7608 72.7946 11.1913C71.7611 10.614 70.5968 10.3113 69.4129 10.3121C68.2253 10.3121 67.0593 10.6154 66.0308 11.1913C65.0094 11.7608 64.1558 12.5891 63.5558 13.5929L57.1357 24.3858L44.5839 3.27997C43.9833 2.27621 43.1292 1.44812 42.1074 0.878823C41.0735 0.301693 39.9089 -0.0008709 38.7249 1.8829e-06C37.5376 1.8829e-06 36.3709 0.303288 35.3424 0.878823C34.3207 1.44818 33.4667 2.27626 32.8662 3.27997L1.62186 55.7759C1.02902 56.7675 0.715444 57.901 0.714355 59.0563C0.714355 60.2081 1.02589 61.3399 1.6195 62.3374C2.21961 63.3416 3.07348 64.1701 4.09528 64.7397C5.12911 65.317 6.29369 65.6196 7.47778 65.6185H30.9459C40.2444 65.6185 47.1014 61.657 51.82 53.9279L63.2753 34.6846L69.4109 24.3858L87.8257 55.3202H63.2753L57.1357 65.6185ZM30.5629 55.31L14.1854 55.306L38.7359 14.0627L50.9855 34.6846L42.7839 48.4676C39.6504 53.4824 36.0907 55.3096 30.5632 55.3096L30.5629 55.31Z" fill="#00DC82"/>
</g>
<defs>
<clipPath id="clip0_25_163">
<rect width="100.571" height="66" fill="white" transform="translate(0.714355)"/>
</clipPath>
</defs>
</svg>
