<svg width="100" height="96" viewBox="0 0 100 96" fill="none" xmlns="http://www.w3.org/2000/svg">
<g clip-path="url(#clip0_25_133)">
<mask id="mask0_25_133" style="mask-type:luminance" maskUnits="userSpaceOnUse" x="0" y="0" width="99" height="96">
<path d="M98.6615 0H0.199951V96H98.6615V0Z" fill="white"/>
</mask>
<g mask="url(#mask0_25_133)">
<path d="M81.2256 0H17.6358C8.00626 0 0.199951 7.80631 0.199951 17.4359V78.5641C0.199951 88.1936 8.00626 96 17.6358 96H81.2256C90.8551 96 98.6615 88.1936 98.6615 78.5641V17.4359C98.6615 7.80631 90.8551 0 81.2256 0Z" fill="#001E36"/>
<path d="M22.3708 67.3207V25.114C22.3708 24.8064 22.503 24.6516 22.7672 24.6516C23.471 24.6516 24.1135 24.6413 25.0827 24.6186C26.0509 24.5969 27.0967 24.5749 28.2201 24.5526C29.3431 24.5308 30.5321 24.5088 31.787 24.4865C33.0419 24.4648 34.2858 24.4538 35.5188 24.4534C38.8647 24.4534 41.6829 24.8717 43.9732 25.7084C46.0394 26.4073 47.9235 27.558 49.4887 29.077C50.8155 30.3936 51.8408 31.9824 52.494 33.7337C53.1119 35.438 53.4249 37.2378 53.4188 39.0508C53.4188 42.5742 52.6041 45.4805 50.9749 47.7695C49.3349 50.0681 47.0295 51.8086 44.3697 52.7564C41.5956 53.7916 38.5128 54.1426 35.1225 54.1426C34.1534 54.1426 33.4708 54.1316 33.0749 54.1096C32.6786 54.0878 32.0843 54.0768 31.2916 54.0766V67.2547C31.3032 67.3355 31.2957 67.4178 31.2699 67.4952C31.2441 67.5726 31.2007 67.6429 31.143 67.7005C31.0853 67.7582 31.0149 67.8017 30.9375 67.8275C30.8601 67.8533 30.7778 67.8607 30.6971 67.8492H22.8332C22.5247 67.8492 22.3708 67.6736 22.3708 67.3207ZM31.2916 32.5777V46.3439C31.8633 46.3883 32.3917 46.4102 32.8767 46.4099H35.0564C36.6602 46.4046 38.2535 46.1502 39.7793 45.6559C41.0877 45.2672 42.257 44.5107 43.1478 43.4762C44.0064 42.4638 44.4357 41.0548 44.4359 39.249C44.4707 37.9712 44.1382 36.7104 43.4779 35.6161C42.7838 34.5578 41.7806 33.7392 40.6047 33.2713C39.0695 32.6746 37.4294 32.3938 35.783 32.4457C34.726 32.4457 33.7904 32.4566 32.976 32.4786C32.1606 32.5014 31.5992 32.5344 31.2916 32.5777Z" fill="#31A8FF"/>
<path d="M78.9573 43.8408C77.716 43.203 76.394 42.7364 75.0273 42.4537C73.5213 42.1082 71.9817 41.931 70.4367 41.9252C69.601 41.9026 68.7664 42.0027 67.9598 42.2226C67.4463 42.3368 66.99 42.6294 66.6717 43.0482C66.4564 43.3831 66.3418 43.7729 66.3416 44.171C66.3536 44.5573 66.4929 44.9288 66.7378 45.2278C67.1236 45.6792 67.5951 46.0496 68.1248 46.3177C69.0666 46.8248 70.037 47.277 71.0311 47.6718C73.2478 48.4139 75.3661 49.4229 77.339 50.677C78.683 51.5253 79.7952 52.6943 80.5755 54.0787C81.2318 55.3897 81.5604 56.8403 81.5334 58.3061C81.5728 60.2415 81.0198 62.1429 79.9482 63.7552C78.8008 65.3919 77.2074 66.6644 75.3574 67.421C73.3532 68.3015 70.8763 68.7418 67.9268 68.7421C66.053 68.7611 64.1823 68.5839 62.3454 68.2137C60.8982 67.9483 59.4892 67.5047 58.1511 66.8927C58.0066 66.8181 57.8865 66.704 57.8047 66.5636C57.7227 66.4232 57.6825 66.2624 57.6888 66.1001V58.9665C57.6808 58.8967 57.692 58.826 57.721 58.7619C57.7502 58.698 57.7962 58.6431 57.854 58.6032C57.9108 58.5711 57.9759 58.5571 58.0407 58.5631C58.1056 58.569 58.1672 58.5945 58.2172 58.6363C59.7975 59.5681 61.5134 60.2478 63.3031 60.6509C64.8806 61.0463 66.4987 61.2567 68.1248 61.2783C69.6657 61.2783 70.7996 61.0801 71.5264 60.6839C71.8548 60.5336 72.1324 60.2915 72.3259 59.9867C72.5193 59.6819 72.6202 59.3275 72.6164 58.9665C72.6164 58.3947 72.2862 57.8444 71.6257 57.3152C70.9652 56.7868 69.6222 56.1483 67.5964 55.3997C65.5225 54.6779 63.556 53.678 61.7509 52.4275C60.4598 51.5295 59.3966 50.3419 58.6465 48.9597C57.9969 47.6582 57.6685 46.22 57.6888 44.7655C57.685 43.0178 58.1652 41.3032 59.0758 39.8116C60.1141 38.1691 61.6051 36.8616 63.3692 36.0468C65.3064 35.0786 67.7282 34.5943 70.635 34.5936C72.3372 34.5799 74.0378 34.7013 75.7208 34.9568C76.9396 35.1115 78.1311 35.4337 79.2616 35.9146C79.3513 35.9403 79.4337 35.9865 79.5025 36.0495C79.5712 36.1126 79.6245 36.1908 79.6579 36.2779C79.7025 36.4392 79.7247 36.6058 79.724 36.7732V43.4444C79.7286 43.5221 79.7126 43.5996 79.6779 43.669C79.6431 43.7386 79.5907 43.7978 79.5259 43.8408C79.4376 43.8847 79.3402 43.9076 79.2416 43.9076C79.143 43.9076 79.0456 43.8847 78.9573 43.8408Z" fill="#31A8FF"/>
</g>
</g>
<defs>
<clipPath id="clip0_25_133">
<rect width="99.6" height="96" fill="white" transform="translate(0.199951)"/>
</clipPath>
</defs>
</svg>
